<svg width="14" height="14" viewBox="0 0 14 14" fill="none" xmlns="http://www.w3.org/2000/svg">
<path d="M6.82586 12.6852C10.1561 12.6852 12.8558 9.98546 12.8558 6.65521C12.8558 3.32495 10.1561 0.625244 6.82586 0.625244C3.4956 0.625244 0.795898 3.32495 0.795898 6.65521C0.795898 9.98546 3.4956 12.6852 6.82586 12.6852Z" stroke="#474F59" stroke-linecap="round" stroke-linejoin="round"/>
<path d="M6.82574 7.41101C7.24316 7.41101 7.58154 7.07263 7.58154 6.65521C7.58154 6.2378 7.24316 5.89941 6.82574 5.89941C6.40833 5.89941 6.06995 6.2378 6.06995 6.65521C6.06995 7.07263 6.40833 7.41101 6.82574 7.41101Z" stroke="#474F59" stroke-linecap="round" stroke-linejoin="round"/>
<path d="M6.82581 5.89939V2.13135" stroke="#474F59" stroke-linecap="round" stroke-linejoin="round"/>
<path d="M7.35718 7.18646L9.0988 8.92809" stroke="#474F59" stroke-linecap="round" stroke-linejoin="round"/>
</svg>
