<svg width="20" height="11" viewBox="0 0 20 11" fill="none" xmlns="http://www.w3.org/2000/svg">
<path d="M9.84728 0.262329C4.60728 0.262329 0.457277 4.83233 0.287277 5.03233C0.215592 5.10993 0.175781 5.21169 0.175781 5.31733C0.175781 5.42297 0.215592 5.52473 0.287277 5.60233C0.457277 5.79233 4.61728 10.3623 9.84728 10.3623C15.0773 10.3623 19.2373 5.83233 19.4073 5.59233C19.479 5.51473 19.5188 5.41297 19.5188 5.30733C19.5188 5.20169 19.479 5.09993 19.4073 5.02233C19.2373 4.83233 15.0773 0.262329 9.84728 0.262329ZM1.17728 5.31233C2.76823 3.71996 4.67615 2.47981 6.77728 1.67233C6.24703 2.11914 5.8208 2.67641 5.52841 3.30515C5.23602 3.9339 5.08452 4.61893 5.08452 5.31233C5.08452 6.00573 5.23602 6.69076 5.52841 7.31951C5.8208 7.94825 6.24703 8.50551 6.77728 8.95233C4.67683 8.14352 2.76917 6.90354 1.17728 5.31233ZM9.83728 9.02233C9.10351 9.02233 8.38622 8.80474 7.77611 8.39708C7.166 7.98942 6.69049 7.41 6.40968 6.73208C6.12888 6.05417 6.05541 5.30821 6.19856 4.58854C6.34171 3.86887 6.69506 3.20782 7.21391 2.68896C7.73276 2.17011 8.39382 1.81677 9.11349 1.67362C9.83316 1.53046 10.5791 1.60394 11.257 1.88474C11.9349 2.16554 12.5144 2.64106 12.922 3.25116C13.3297 3.86127 13.5473 4.57856 13.5473 5.31233C13.5473 6.29455 13.1578 7.23669 12.4642 7.93217C11.7706 8.62764 10.8295 9.01968 9.84728 9.02233H9.83728ZM12.9073 8.95233C13.4375 8.50551 13.8638 7.94825 14.1561 7.31951C14.4485 6.69076 14.6 6.00573 14.6 5.31233C14.6 4.61893 14.4485 3.9339 14.1561 3.30515C13.8638 2.67641 13.4375 2.11914 12.9073 1.67233C15.0009 2.48308 16.9016 3.72299 18.4873 5.31233C16.9051 6.9012 15.0077 8.14114 12.9173 8.95233H12.9073Z" fill="#474F59"/>
<path d="M10.8672 5.31232C10.8672 5.11454 10.8085 4.9212 10.6987 4.75675C10.5888 4.5923 10.4326 4.46413 10.2499 4.38844C10.0671 4.31275 9.86608 4.29295 9.6721 4.33153C9.47812 4.37012 9.29993 4.46536 9.16008 4.60521C9.02023 4.74506 8.92499 4.92325 8.8864 5.11723C8.84782 5.31121 8.86762 5.51227 8.94331 5.695C9.019 5.87773 9.14717 6.03391 9.31162 6.14379C9.47607 6.25367 9.66941 6.31232 9.86719 6.31232C10.1324 6.31232 10.3868 6.20696 10.5743 6.01942C10.7618 5.83189 10.8672 5.57753 10.8672 5.31232ZM9.45719 5.31232C9.45719 5.23518 9.48006 5.15978 9.52291 5.09565C9.56577 5.03151 9.62668 4.98152 9.69794 4.952C9.7692 4.92249 9.84762 4.91476 9.92327 4.92981C9.99893 4.94486 10.0684 4.982 10.123 5.03655C10.1775 5.09109 10.2146 5.16058 10.2297 5.23623C10.2447 5.31188 10.237 5.3903 10.2075 5.46156C10.178 5.53283 10.128 5.59374 10.0639 5.63659C9.99972 5.67944 9.92432 5.70232 9.84719 5.70232C9.74375 5.70232 9.64455 5.66123 9.57142 5.58809C9.49828 5.51495 9.45719 5.41575 9.45719 5.31232Z" fill="#474F59"/>
</svg>
